<?xml version="1.0" encoding="UTF-8" standalone="no"?>
<!DOCTYPE svg PUBLIC "-//W3C//DTD SVG 1.1//EN" "http://www.w3.org/Graphics/SVG/1.1/DTD/svg11.dtd">
<svg width="100%" height="100%" viewBox="0 0 191 127" version="1.1" xmlns="http://www.w3.org/2000/svg" xmlns:xlink="http://www.w3.org/1999/xlink" xml:space="preserve" style="fill-rule:evenodd;clip-rule:evenodd;stroke-linecap:round;stroke-linejoin:round;stroke-miterlimit:1.5;">
    <g transform="matrix(1,0,0,1,-2914,-418)">
        <g id="Artboard1" transform="matrix(1.18391,0,0,1.04947,2864.21,0)">
            <rect x="0" y="0" width="1280" height="800" style="fill:none;"/>
            <g transform="matrix(0.844657,0,0,7.03745,-727.392,-551.745)">
                <g transform="matrix(0.797526,0,0,0.666548,527.439,103.126)">
                    <g transform="matrix(0.532066,0.000680252,-0.0259188,0.532066,321.167,-8.66641)">
                        <g transform="matrix(6.34598e-17,0.210812,-0.999442,1.24485e-17,941.767,7.80833)">
                            <path d="M665.83,236.357C665.83,229.663 661.656,224.229 656.514,224.229L477.011,224.229C471.87,224.229 467.695,229.663 467.695,236.357L467.695,599.742C467.695,606.436 471.87,611.871 477.011,611.871L656.514,611.871C661.656,611.871 665.83,606.436 665.83,599.742L665.83,236.357Z" style="fill:white;stroke:rgb(134,117,221);stroke-width:2.54px;"/>
                        </g>
                        <g transform="matrix(8.01765e-17,0.286099,-1.68765,2.11283e-17,1229,-25.6687)">
                            <rect x="472.804" y="313.232" width="123.053" height="207.759" style="fill:white;stroke:rgb(134,117,221);stroke-width:1.71px;"/>
                        </g>
                        <g transform="matrix(7.68183e-19,0.0173489,-1.68765,2.22547e-17,1191.19,139.997)">
                            <rect x="472.804" y="313.232" width="123.053" height="207.759" style="fill:white;stroke:rgb(134,117,221);stroke-width:2.46px;"/>
                        </g>
                    </g>
                    <g transform="matrix(0.0288492,0.0277857,-1.05868,0.0288492,704.779,43.3175)">
                        <g transform="matrix(-0.0318868,-0.161922,0.999491,-0.00516581,51.8015,159.31)">
                            <path d="M650.525,456.432L826.365,560.1L804.364,419.09L740.107,508.868L725.269,608.921" style="fill:none;stroke:rgb(134,117,221);stroke-width:9.01px;"/>
                        </g>
                        <g transform="matrix(-0.0318868,-0.161922,0.999491,-0.00516581,51.8015,159.31)">
                            <path d="M650.095,454.739L725.041,610.288L826.365,560.578" style="fill:none;stroke:rgb(134,117,221);stroke-width:9.01px;"/>
                        </g>
                        <g transform="matrix(-0.0318868,-0.161922,0.999491,-0.00516581,-176.482,161.48)">
                            <path d="M810.883,647.762L656.075,683.512L586.632,790.075L729.298,838.883L599.169,856.269L586.632,790.075" style="fill:none;stroke:rgb(134,117,221);stroke-width:9.01px;"/>
                        </g>
                        <g transform="matrix(1,0,0,0.162005,0,0)">
                            <path d="M585.403,139.553L732.278,149.22L638.66,239.784L660.246,370.959L732.278,149.22" style="fill:none;stroke:rgb(134,117,221);stroke-width:9.01px;"/>
                        </g>
                    </g>
                    <g transform="matrix(0.381329,0,0,0.0595754,462.555,36.6458)">
                        <path d="M665.83,256.81C665.83,238.828 651.751,224.229 634.41,224.229L499.116,224.229C481.774,224.229 467.695,238.828 467.695,256.81L467.695,579.289C467.695,597.271 481.774,611.871 499.116,611.871L634.41,611.871C651.751,611.871 665.83,597.271 665.83,579.289L665.83,256.81Z" style="fill:white;stroke:rgb(134,117,221);stroke-width:4.18px;"/>
                    </g>
                    <g transform="matrix(0.517511,0,0,0.0822887,402,26.55)">
                        <rect x="472.804" y="313.232" width="123.053" height="207.759" style="fill:white;stroke:rgb(134,117,221);stroke-width:3.06px;"/>
                    </g>
                    <g transform="matrix(0.522168,0,0,0.0845936,399.798,25.3492)">
                        <circle cx="535.893" cy="543.719" r="10.822" style="fill:white;stroke:rgb(134,117,221);stroke-width:3px;"/>
                    </g>
                    <g transform="matrix(0.522168,0,0,0.0845936,401.85,25.1087)">
                        <path d="M548.629,307.508C548.629,306.723 547.992,306.087 547.208,306.087L487.277,306.087C486.493,306.087 485.856,306.723 485.856,307.508L485.856,310.349C485.856,311.134 486.493,311.77 487.277,311.77L547.208,311.77C547.992,311.77 548.629,311.134 548.629,310.349L548.629,307.508Z" style="fill:white;stroke:rgb(134,117,221);stroke-width:3px;"/>
                    </g>
                    <g transform="matrix(0.522168,0,0,0.0845936,400.991,25.1087)">
                        <path d="M567.163,307.508C567.163,306.723 566.526,306.087 565.742,306.087L560.004,306.087C559.22,306.087 558.583,306.723 558.583,307.508L558.583,310.349C558.583,311.134 559.22,311.77 560.004,311.77L565.742,311.77C566.526,311.77 567.163,311.134 567.163,310.349L567.163,307.508Z" style="fill:white;stroke:rgb(134,117,221);stroke-width:3px;"/>
                    </g>
                    <g transform="matrix(0.522168,0,0,0.0845936,304.717,23.0456)">
                        <path d="M567.163,307.508C567.163,306.723 566.526,306.087 565.742,306.087L560.004,306.087C559.22,306.087 558.583,306.723 558.583,307.508L558.583,310.349C558.583,311.134 559.22,311.77 560.004,311.77L565.742,311.77C566.526,311.77 567.163,311.134 567.163,310.349L567.163,307.508Z" style="fill:white;stroke:rgb(134,117,221);stroke-width:3px;"/>
                    </g>
                    <g transform="matrix(0.0259267,0.0249709,-0.951435,0.0259267,702.668,44.6488)">
                        <g transform="matrix(-0.0318868,-0.161922,0.999491,-0.00516581,51.8015,159.31)">
                            <path d="M650.525,456.432L826.365,560.1L804.364,419.09L740.107,508.868L725.269,608.921" style="fill:none;stroke:rgb(78,206,166);stroke-width:10.03px;"/>
                        </g>
                        <g transform="matrix(-0.0318868,-0.161922,0.999491,-0.00516581,51.8015,159.31)">
                            <path d="M650.095,454.739L725.041,610.288L826.365,560.578" style="fill:none;stroke:rgb(78,206,166);stroke-width:10.03px;"/>
                        </g>
                        <g transform="matrix(-0.0318868,-0.161922,0.999491,-0.00516581,-176.482,161.48)">
                            <path d="M810.883,647.762L656.075,683.512L586.632,790.075L729.298,838.883L599.169,856.269L586.632,790.075" style="fill:none;stroke:rgb(78,206,166);stroke-width:10.03px;"/>
                        </g>
                        <g transform="matrix(1,0,0,0.162005,0,0)">
                            <path d="M585.403,139.553L732.278,149.22L638.66,239.784L660.246,370.959L732.278,149.22" style="fill:none;stroke:rgb(78,206,166);stroke-width:10.03px;"/>
                        </g>
                    </g>
                </g>
                <g transform="matrix(1,0,0,0.135399,-4276.92,-2.14727)">
                    <path d="M5214.63,1032.64L5254.78,1032.64" style="fill:none;stroke:rgb(78,206,166);stroke-width:1.04px;"/>
                </g>
                <g transform="matrix(0.332837,0,0,0.135399,-792.406,-1.37183)">
                    <path d="M5214.63,1032.64L5254.78,1032.64" style="fill:none;stroke:rgb(78,206,166);stroke-width:1.4px;"/>
                </g>
                <g transform="matrix(1.1118,0,0,0.135399,-4846.31,-0.596388)">
                    <path d="M5214.63,1032.64L5254.78,1032.64" style="fill:none;stroke:rgb(134,117,221);stroke-width:0.99px;"/>
                </g>
                <g transform="matrix(1.1118,0,0,0.135399,-4852.18,5.02945)">
                    <path d="M5214.63,1032.64L5254.78,1032.64" style="fill:none;stroke:rgb(134,117,221);stroke-width:0.99px;"/>
                </g>
                <g transform="matrix(1.1118,0,0,0.135399,-4846.31,0.179052)">
                    <path d="M5214.63,1032.64L5254.78,1032.64" style="fill:none;stroke:rgb(134,117,221);stroke-width:0.99px;"/>
                </g>
                <g transform="matrix(1.1118,0,0,0.135399,-4852.18,5.80489)">
                    <path d="M5214.63,1032.64L5254.78,1032.64" style="fill:none;stroke:rgb(134,117,221);stroke-width:0.99px;"/>
                </g>
                <g transform="matrix(1.1118,0,0,0.135399,-4846.31,0.954492)">
                    <path d="M5214.63,1032.64L5254.78,1032.64" style="fill:none;stroke:rgb(134,117,221);stroke-width:0.99px;"/>
                </g>
                <g transform="matrix(0.362762,0,0,0.135399,-948.458,1.89065)">
                    <path d="M5214.63,1032.64L5254.78,1032.64" style="fill:none;stroke:rgb(78,206,166);stroke-width:1.38px;"/>
                </g>
                <g transform="matrix(0.374247,0,0,0.135399,-1015.3,2.66609)">
                    <path d="M5214.63,1032.64L5254.78,1032.64" style="fill:none;stroke:rgb(78,206,166);stroke-width:1.38px;"/>
                </g>
                <g transform="matrix(0.600504,0,0,0.135399,-2195.94,4.37769)">
                    <path d="M5214.63,1032.64L5254.78,1032.64" style="fill:none;stroke:rgb(78,206,166);stroke-width:1.46px;"/>
                </g>
                <g transform="matrix(0.600504,0,0,0.135399,-2195.14,6.45665)">
                    <path d="M5214.63,1032.64L5254.78,1032.64" style="fill:none;stroke:rgb(78,206,166);stroke-width:1.46px;"/>
                </g>
            </g>
        </g>
    </g>
</svg>
