<?xml version="1.0" encoding="UTF-8" standalone="no"?>
<!DOCTYPE svg PUBLIC "-//W3C//DTD SVG 1.1//EN" "http://www.w3.org/Graphics/SVG/1.1/DTD/svg11.dtd">
<svg width="100%" height="100%" viewBox="0 0 179 159" version="1.1" xmlns="http://www.w3.org/2000/svg" xmlns:xlink="http://www.w3.org/1999/xlink" xml:space="preserve" style="fill-rule:evenodd;clip-rule:evenodd;stroke-linecap:round;stroke-linejoin:round;stroke-miterlimit:1.5;">
    <g transform="matrix(1,0,0,1,-3160,-593)">
        <g id="Artboard1" transform="matrix(1.18391,0,0,1.04947,2864.21,0)">
            <rect x="0" y="0" width="1280" height="800" style="fill:none;"/>
            <g transform="matrix(0.844657,0,0,7.03745,-205.093,-376.612)">
                <g transform="matrix(1,0,0,0.101779,477.749,90.3858)">
                    <g transform="matrix(0.814584,0,0,1.08366,-3667.91,281.819)">
                        <path d="M4641.43,310.252L4733.22,310.252" style="fill:none;stroke:rgb(134,117,221);stroke-width:1.53px;"/>
                    </g>
                    <g transform="matrix(1.35651,0,0,0.97672,-6153.37,316.202)">
                        <rect x="4599.87" y="174.539" width="34.697" height="40.194" style="fill:none;stroke:rgb(78,206,166);stroke-width:1.15px;"/>
                    </g>
                    <g transform="matrix(0.814584,0,0,1.08366,-3665.62,282.698)">
                        <rect x="4589.76" y="165.963" width="189.991" height="95.385" style="fill:none;stroke:rgb(134,117,221);stroke-width:1.53px;"/>
                    </g>
                    <g transform="matrix(0.804786,0,0,1.03468,-3672.32,301.583)">
                        <path d="M4857.09,150.265C4857.09,144.923 4852.9,140.587 4847.73,140.587L4652.01,140.587C4646.85,140.587 4642.66,144.923 4642.66,150.265L4642.66,280.564C4642.66,285.905 4646.85,290.241 4652.01,290.241L4847.73,290.241C4852.9,290.241 4857.09,285.905 4857.09,280.564L4857.09,150.265Z" style="fill:none;stroke:rgb(134,117,221);stroke-width:1.58px;"/>
                    </g>
                    <g transform="matrix(0.814584,0,0,1.08366,-3665.62,282.698)">
                        <path d="M4578.59,271.655L4790.44,271.655" style="fill:none;stroke:rgb(134,117,221);stroke-width:1.53px;"/>
                    </g>
                    <g transform="matrix(0.814584,0,0,0.106882,-3646.1,468.846)">
                        <rect x="4667.4" y="174.951" width="36.173" height="78.769" style="fill:none;stroke:rgb(134,117,221);stroke-width:2.16px;"/>
                    </g>
                    <g transform="matrix(1,0,0,1.08721,-4766.96,-628.147)">
                        <path d="M4917.27,970.498L4917.27,1169.04" style="fill:none;stroke:rgb(134,117,221);stroke-width:1.37px;stroke-dasharray:8.21,5.48,0,0;"/>
                    </g>
                    <g transform="matrix(0.814584,0,0,0.873779,-3611.06,334.677)">
                        <rect x="4667.4" y="174.951" width="36.173" height="78.769" style="fill:none;stroke:rgb(134,117,221);stroke-width:1.69px;"/>
                    </g>
                    <g transform="matrix(0.814584,0,0,1.08366,-3665.62,282.698)">
                        <path d="M4589.76,174.943L4779.75,174.943" style="fill:none;stroke:rgb(134,117,221);stroke-width:1.53px;"/>
                    </g>
                    <g transform="matrix(0.814584,0,0,1.08366,-3659.77,280.258)">
                        <path d="M4600.85,238.945L4656.7,238.945" style="fill:none;stroke:rgb(78,206,166);stroke-width:1.53px;"/>
                    </g>
                    <g transform="matrix(0.814584,0,0,1.08366,-3659.78,287.229)">
                        <path d="M4600.85,238.945L4656.7,238.945" style="fill:none;stroke:rgb(78,206,166);stroke-width:1.53px;"/>
                    </g>
                    <g transform="matrix(0.814584,0,0,1.08366,-3659.78,294.2)">
                        <path d="M4600.85,238.945L4656.7,238.945" style="fill:none;stroke:rgb(78,206,166);stroke-width:1.53px;"/>
                    </g>
                    <g transform="matrix(0.814584,0,0,8.00344,-175.881,282.698)">
                        <g transform="matrix(1,0,0,0.103005,-4291.8,9.54265)">
                            <path d="M4664.4,294.586L4664.4,312.794" style="fill:none;stroke:rgb(134,117,221);stroke-width:1.73px;"/>
                        </g>
                        <g transform="matrix(1,0,0,0.103005,-4236.11,9.53796)">
                            <path d="M4664.4,294.586L4664.4,312.794" style="fill:none;stroke:rgb(134,117,221);stroke-width:1.73px;"/>
                        </g>
                    </g>
                </g>
                <g transform="matrix(1,0,0,0.135399,-4291.71,0.235484)">
                    <path d="M4925.91,1045.26L4954.79,1045.26" style="fill:none;stroke:rgb(134,117,221);stroke-width:1.25px;"/>
                </g>
                <g transform="matrix(1,0,0,0.135399,-4291.71,1.03623)">
                    <path d="M4925.91,1045.26L4954.79,1045.26" style="fill:none;stroke:rgb(134,117,221);stroke-width:1.25px;"/>
                </g>
                <g transform="matrix(1,0,0,0.135399,-4291.8,-1.69324e-13)">
                    <ellipse cx="4851.42" cy="1018.73" rx="0.978" ry="0.917" style="fill:rgb(81,99,209);stroke:rgb(134,117,221);stroke-width:1.67px;"/>
                </g>
                <g transform="matrix(1,0,0,0.135399,-4285.28,-1.69324e-13)">
                    <ellipse cx="4851.42" cy="1018.73" rx="0.978" ry="0.917" style="fill:rgb(81,99,209);stroke:rgb(134,117,221);stroke-width:1.67px;"/>
                </g>
                <g transform="matrix(1,0,0,0.135399,-4278.28,-1.69324e-13)">
                    <ellipse cx="4851.42" cy="1018.73" rx="0.978" ry="0.917" style="fill:rgb(81,99,209);stroke:rgb(134,117,221);stroke-width:1.67px;"/>
                </g>
                <g transform="matrix(1,0,0,0.135399,-4285.95,-0.248366)">
                    <path d="M4850,1035.55L4896.65,1064.16" style="fill:none;stroke:rgb(78,206,166);stroke-width:1.46px;"/>
                </g>
                <g transform="matrix(1,0,0,0.135399,-4285.95,-0.248366)">
                    <path d="M4896.65,1035.98L4850.32,1064.25" style="fill:none;stroke:rgb(78,206,166);stroke-width:1.46px;"/>
                </g>
                <g transform="matrix(1,0,0,0.135399,-4293.7,0.00690941)">
                    <path d="M4942.34,1059.06L4946.34,1069.05L4957.14,1072.74L4946.34,1076.44L4942.34,1086.42L4938.35,1076.44L4927.54,1072.74L4938.35,1069.05L4942.34,1059.06Z" style="fill:none;stroke:rgb(134,117,221);stroke-width:1.04px;"/>
                </g>
            </g>
        </g>
    </g>
</svg>
