<?xml version="1.0" encoding="UTF-8" standalone="no"?>
<!DOCTYPE svg PUBLIC "-//W3C//DTD SVG 1.1//EN" "http://www.w3.org/Graphics/SVG/1.1/DTD/svg11.dtd">
<svg width="100%" height="100%" viewBox="0 0 209 174" version="1.1" xmlns="http://www.w3.org/2000/svg" xmlns:xlink="http://www.w3.org/1999/xlink" xml:space="preserve" style="fill-rule:evenodd;clip-rule:evenodd;stroke-linecap:round;stroke-linejoin:round;stroke-miterlimit:1.5;">
    <g transform="matrix(1,0,0,1,-2923,-608)">
        <g id="Artboard1" transform="matrix(1.18391,0,0,1.04947,2864.21,0)">
            <rect x="0" y="0" width="1280" height="800" style="fill:none;"/>
            <g transform="matrix(0.844657,0,0,7.03745,-97.3388,-377.712)">
                <g transform="matrix(1.16934,0,0,1.16934,-7.09449,-29.5383)">
                    <g transform="matrix(0.495548,-0.0379301,2.06897,0.495548,-138.524,160.323)">
                        <g transform="matrix(0.609957,0.00236981,-0.0210543,0.0993469,-2300.77,-5.07023)">
                            <path d="M5094.53,188.484L5084.1,200.445" style="fill:none;stroke:rgb(134,117,221);stroke-width:3.8px;"/>
                        </g>
                        <g transform="matrix(-1.19451,-0.138681,0.32613,-0.0514979,6720.79,745.742)">
                            <path d="M5054.88,172.292C5054.88,172.292 5050.93,314.301 5050.93,375.162C5050.93,382.007 5052.69,387.565 5054.88,387.565C5057.05,387.565 5058.82,382.007 5058.82,375.162C5058.82,314.301 5054.88,172.292 5054.88,172.292Z" style="fill:none;stroke:rgb(134,117,221);stroke-width:2.19px;"/>
                        </g>
                    </g>
                    <g transform="matrix(1,0,0,0.104222,-4291.8,36.1648)">
                        <path d="M4451.8,1020L4451.8,1140" style="fill:none;stroke:rgb(134,117,221);stroke-width:1.4px;"/>
                    </g>
                    <g transform="matrix(1,0,0,0.104222,-4291.8,36.1648)">
                        <path d="M4451.8,1140L4491.8,1160L4531.8,1140L4570.69,1160" style="fill:none;stroke:rgb(134,117,221);stroke-width:1.4px;"/>
                    </g>
                    <g transform="matrix(1,0,0,0.104222,-4291.24,23.6582)">
                        <path d="M4451.8,1140L4491.8,1160L4531.8,1140L4570.69,1160" style="fill:none;stroke:rgb(134,117,221);stroke-width:1.4px;stroke-dasharray:8.4,5.6,0,0;"/>
                    </g>
                    <g transform="matrix(1,0,0,0.104222,-4291.8,36.1648)">
                        <path d="M4491.8,1040L4491.8,1158.34" style="fill:none;stroke:rgb(134,117,221);stroke-width:1.4px;"/>
                    </g>
                    <g transform="matrix(1,0,0,0.104222,-4291.8,36.1648)">
                        <path d="M4532.28,1020.79L4531.8,1140" style="fill:none;stroke:rgb(134,117,221);stroke-width:1.4px;"/>
                    </g>
                    <g transform="matrix(1,0,0,0.104222,-4291.8,36.1648)">
                        <path d="M4571.8,1040L4571.8,1160" style="fill:none;stroke:rgb(134,117,221);stroke-width:1.4px;stroke-dasharray:8.4,5.6,0,0;"/>
                    </g>
                    <g transform="matrix(1,0,0,0.104222,-4290.98,36.1632)">
                        <path d="M4456.48,1034L4483.48,1046.99L4483.6,1073.37L4456.6,1059.75L4456.48,1034Z" style="fill:none;stroke:rgb(134,117,221);stroke-width:1.4px;"/>
                    </g>
                    <g transform="matrix(-1,0,0,0.156333,4683.62,-16.3244)">
                        <path d="M4456.6,1038.2L4483.48,1046.99L4483.6,1071.64L4456.6,1062.45L4456.6,1038.2Z" style="fill:none;stroke:rgb(134,117,221);stroke-width:1.16px;"/>
                    </g>
                    <g transform="matrix(1,0,0,0.104222,-4296.6,40.6713)">
                        <path d="M4456.8,1034L4483.1,1047.26L4482.6,1073.24L4456.6,1059.75L4456.8,1034Z" style="fill:none;stroke:rgb(134,117,221);stroke-width:1.4px;"/>
                    </g>
                    <g transform="matrix(1.00077,0,0,0.104222,-4220.03,43.411)">
                        <path d="M4456.8,1034L4483.1,1047.26L4482.6,1073.24L4456.6,1059.75L4456.8,1034Z" style="fill:none;stroke:rgb(134,117,221);stroke-width:1.4px;stroke-dasharray:8.4,5.6,0,0;"/>
                    </g>
                    <g transform="matrix(1,0,0,0.135399,-4291.8,-1.69324e-13)">
                        <path d="M4456.8,1087L4482.8,1098" style="fill:none;stroke:rgb(134,117,221);stroke-width:1.46px;"/>
                    </g>
                    <g transform="matrix(1,0,0,0.135399,-4285.32,5.52462)">
                        <path d="M4456.8,1087L4474.9,1094.66" style="fill:none;stroke:rgb(134,117,221);stroke-width:1.46px;"/>
                    </g>
                    <g transform="matrix(1,0,0,0.135399,-4285.7,6.75032)">
                        <path d="M4456.8,1087L4479.13,1096.45" style="fill:none;stroke:rgb(134,117,221);stroke-width:1.46px;"/>
                    </g>
                    <g transform="matrix(1,0,0,0.135399,-4292.18,0.609294)">
                        <path d="M4456.8,1087L4482.8,1098" style="fill:none;stroke:rgb(134,117,221);stroke-width:1.46px;"/>
                    </g>
                    <g transform="matrix(1,0,0,0.135399,-4285.7,6.13391)">
                        <path d="M4456.8,1087L4475.7,1095" style="fill:none;stroke:rgb(134,117,221);stroke-width:1.46px;"/>
                    </g>
                    <g transform="matrix(1,0,0,0.135399,-4286.08,7.35962)">
                        <path d="M4456.8,1087L4479.6,1096.64" style="fill:none;stroke:rgb(134,117,221);stroke-width:1.46px;"/>
                    </g>
                    <g transform="matrix(1,0,0,0.135399,-4291.8,-1.69324e-13)">
                        <path d="M4623.58,1062.63C4618.08,1056.43 4611.84,1053.3 4603.6,1053.27C4591.19,1053.21 4585.76,1061.59 4582.86,1068.08C4581.63,1070.83 4581.61,1076.22 4582.09,1079.12C4584,1090.57 4591.87,1106.78 4581.68,1116.45C4578.53,1119.44 4576.7,1121.64 4572.22,1121.64" style="fill:none;stroke:rgb(134,117,221);stroke-width:1.46px;"/>
                    </g>
                </g>
                <g transform="matrix(1,0,0,0.135399,-4320.69,2.21319)">
                    <path d="M4588.12,1123.3L4536.57,1145.06L4572.23,1159.16L4622.51,1137.61L4588.12,1123.3Z" style="fill:white;stroke:rgb(78,206,166);stroke-width:1.67px;"/>
                </g>
                <g transform="matrix(1,0,0,0.135399,-4315.5,0.90717)">
                    <path d="M4588.12,1123.3L4536.57,1145.06L4572.23,1159.16L4622.51,1137.61L4588.12,1123.3Z" style="fill:white;stroke:rgb(78,206,166);stroke-width:1.67px;"/>
                </g>
            </g>
        </g>
    </g>
</svg>
